<svg width="40" height="40" viewBox="0 0 40 40" fill="current" xmlns="http://www.w3.org/2000/svg">
<path d="M36.0039 16.3477H34.4908C34.1363 14.9324 33.5796 13.5887 32.829 12.3363L33.8991 11.2661C34.2881 10.8771 34.2881 10.2464 33.8991 9.85744L30.1426 6.10091C29.7535 5.7119 29.1229 5.7119 28.7339 6.10091L27.6637 7.17104C26.4114 6.42039 25.0675 5.8637 23.6523 5.50916V3.99609C23.6523 3.44598 23.2064 3 22.6562 3H17.3438C16.7936 3 16.3477 3.44598 16.3477 3.99609V5.50916C14.9325 5.86364 13.5886 6.42039 12.3363 7.17104L11.2661 6.10091C10.8771 5.7119 10.2464 5.7119 9.85744 6.10091L6.10097 9.85744C5.71196 10.2464 5.71196 10.8771 6.10097 11.2661L7.17104 12.3363C6.42039 13.5887 5.8637 14.9323 5.50916 16.3477H3.99609C3.44598 16.3477 3 16.7936 3 17.3438V22.6562C3 23.2064 3.44598 23.6523 3.99609 23.6523H5.50916C5.8637 25.0677 6.42039 26.4113 7.17104 27.6637L6.10091 28.7339C5.7119 29.1229 5.7119 29.7535 6.10091 30.1426L9.85744 33.899C10.2464 34.288 10.8771 34.288 11.2661 33.899L12.3363 32.8289C13.5887 33.5795 14.9325 34.1362 16.3477 34.4907V36.0039C16.3477 36.554 16.7936 37 17.3438 37H22.6562C23.2064 37 23.6523 36.554 23.6523 36.0039V34.4908C25.0675 34.1363 26.4113 33.5795 27.6637 32.829L28.7339 33.899C29.1229 34.288 29.7535 34.288 30.1426 33.899L33.8991 30.1426C34.2881 29.7535 34.2881 29.1229 33.8991 28.7339L32.829 27.6637C33.5796 26.4113 34.1363 25.0676 34.4908 23.6523H36.0039C36.554 23.6523 37 23.2064 37 22.6562V17.3438C37 16.7936 36.554 16.3477 36.0039 16.3477ZM20 30.293C14.3245 30.293 9.70703 25.6755 9.70703 20C9.70703 14.3245 14.3245 9.70703 20 9.70703C25.6755 9.70703 30.293 14.3245 30.293 20C30.293 25.6755 25.6755 30.293 20 30.293Z" fill="current" />
<path d="M20 20.9961C21.2836 20.9961 22.3242 19.9555 22.3242 18.6719C22.3242 17.3882 21.2836 16.3477 20 16.3477C18.7164 16.3477 17.6758 17.3882 17.6758 18.6719C17.6758 19.9555 18.7164 20.9961 20 20.9961Z" fill="current" />
<path d="M20.0004 22.9883C17.6919 22.9883 15.8011 24.8099 15.6895 27.0911C16.9467 27.8583 18.4229 28.3008 20.0004 28.3008C21.578 28.3008 23.0541 27.8583 24.3114 27.0911C24.1997 24.8099 22.3089 22.9883 20.0004 22.9883Z" fill="current" />
<path d="M20 11.6992C15.4229 11.6992 11.6992 15.4229 11.6992 20C11.6992 22.1754 12.5408 24.1576 13.9149 25.6394C14.3725 23.9695 15.5002 22.5738 16.9901 21.7616C16.185 20.977 15.6836 19.8822 15.6836 18.6719C15.6836 16.2918 17.6199 14.3555 20 14.3555C22.3801 14.3555 24.3164 16.2918 24.3164 18.6719C24.3164 19.8822 23.815 20.977 23.0099 21.7616C24.4998 22.5738 25.6275 23.9694 26.0851 25.6393C27.4592 24.1576 28.3008 22.1754 28.3008 20C28.3008 15.4229 24.5771 11.6992 20 11.6992Z" fill="current" />
</svg>
