<svg width="34" height="34" viewBox="0 0 34 34" fill="current" xmlns="http://www.w3.org/2000/svg">
<path d="M16.9997 0.333252C7.79967 0.333252 0.333008 7.79992 0.333008 16.9999C0.333008 26.1999 7.79967 33.6666 16.9997 33.6666C26.1997 33.6666 33.6663 26.1999 33.6663 16.9999C33.6663 7.79992 26.1997 0.333252 16.9997 0.333252ZM16.9997 5.33325C19.7663 5.33325 21.9997 7.56659 21.9997 10.3333C21.9997 13.0999 19.7663 15.3333 16.9997 15.3333C14.233 15.3333 11.9997 13.0999 11.9997 10.3333C11.9997 7.56659 14.233 5.33325 16.9997 5.33325ZM16.9997 28.9999C12.833 28.9999 9.14967 26.8666 6.99967 23.6333C7.04967 20.3166 13.6663 18.4999 16.9997 18.4999C20.3163 18.4999 26.9497 20.3166 26.9997 23.6333C24.8497 26.8666 21.1663 28.9999 16.9997 28.9999Z" fill="current"/>
</svg>
