<svg width="100%" height="100%" viewBox="0 0 24 24" fill="none" xmlns="http://www.w3.org/2000/svg">
<path d="M1.99967 15.3335C1.08301 15.3335 0.333008 16.0835 0.333008 17.0002V22.0002C0.333008 22.9168 1.08301 23.6668 1.99967 23.6668H6.99968C7.91634 23.6668 8.66634 22.9168 8.66634 22.0002C8.66634 21.0835 7.91634 20.3335 6.99968 20.3335H3.66634V17.0002C3.66634 16.0835 2.91634 15.3335 1.99967 15.3335ZM1.99967 8.66683C2.91634 8.66683 3.66634 7.91683 3.66634 7.00016V3.66683H6.99968C7.91634 3.66683 8.66634 2.91683 8.66634 2.00016C8.66634 1.0835 7.91634 0.333496 6.99968 0.333496H1.99967C1.08301 0.333496 0.333008 1.0835 0.333008 2.00016V7.00016C0.333008 7.91683 1.08301 8.66683 1.99967 8.66683ZM20.333 20.3335H16.9997C16.083 20.3335 15.333 21.0835 15.333 22.0002C15.333 22.9168 16.083 23.6668 16.9997 23.6668H21.9997C22.9163 23.6668 23.6663 22.9168 23.6663 22.0002V17.0002C23.6663 16.0835 22.9163 15.3335 21.9997 15.3335C21.083 15.3335 20.333 16.0835 20.333 17.0002V20.3335ZM15.333 2.00016C15.333 2.91683 16.083 3.66683 16.9997 3.66683H20.333V7.00016C20.333 7.91683 21.083 8.66683 21.9997 8.66683C22.9163 8.66683 23.6663 7.91683 23.6663 7.00016V2.00016C23.6663 1.0835 22.9163 0.333496 21.9997 0.333496H16.9997C16.083 0.333496 15.333 1.0835 15.333 2.00016Z" fill="#3B3C44"/>
</svg>
