<svg width="40" height="40" viewBox="0 0 40 40" fill="current" xmlns="http://www.w3.org/2000/svg">
<path d="M20.4837 13.5333L25.2837 18.3333H3.33366C2.41699 18.3333 1.66699 19.0833 1.66699 20C1.66699 20.9167 2.41699 21.6667 3.33366 21.6667H25.2837L20.4837 26.4667C19.8337 27.1167 19.8337 28.1667 20.4837 28.8167C21.1337 29.4667 22.1837 29.4667 22.8337 28.8167L30.4837 21.1667C31.1337 20.5167 31.1337 19.4667 30.4837 18.8167L22.8337 11.1667C22.1837 10.5167 21.1337 10.5167 20.4837 11.1667C19.8503 11.8167 19.8337 12.8833 20.4837 13.5333ZM33.3337 11.6667V28.3333C33.3337 29.25 34.0837 30 35.0003 30C35.917 30 36.667 29.25 36.667 28.3333V11.6667C36.667 10.75 35.917 10 35.0003 10C34.0837 10 33.3337 10.75 33.3337 11.6667Z" fill="current" />
</svg>
