<svg width="40" height="40" viewBox="0 0 40 40" fill="current" xmlns="http://www.w3.org/2000/svg">
<path d="M29.167 7.5C25.917 7.5 22.417 8.16667 20.0003 10C17.5837 8.16667 14.0837 7.5 10.8337 7.5C8.41699 7.5 5.85033 7.86667 3.70033 8.81667C2.48366 9.36667 1.66699 10.55 1.66699 11.9V30.7C1.66699 32.8667 3.70033 34.4667 5.80033 33.9333C7.43366 33.5167 9.16699 33.3333 10.8337 33.3333C13.4337 33.3333 16.2003 33.7667 18.4337 34.8667C19.4337 35.3667 20.567 35.3667 21.5503 34.8667C23.7837 33.75 26.5503 33.3333 29.1503 33.3333C30.817 33.3333 32.5503 33.5167 34.1837 33.9333C36.2837 34.4833 38.317 32.8833 38.317 30.7V11.9C38.317 10.55 37.5003 9.36667 36.2837 8.81667C34.1503 7.86667 31.5837 7.5 29.167 7.5ZM35.0003 28.7167C35.0003 29.7667 34.0337 30.5333 33.0003 30.35C31.7503 30.1167 30.4503 30.0167 29.167 30.0167C26.3337 30.0167 22.2503 31.1 20.0003 32.5167V13.3333C22.2503 11.9167 26.3337 10.8333 29.167 10.8333C30.7003 10.8333 32.217 10.9833 33.667 11.3C34.4337 11.4667 35.0003 12.15 35.0003 12.9333V28.7167Z" fill="current"/>
<path d="M23.3005 18.3501C22.7671 18.3501 22.2838 18.0167 22.1171 17.4834C21.9005 16.8334 22.2671 16.1167 22.9171 15.9167C25.4838 15.0834 28.8005 14.8167 31.8505 15.1667C32.5338 15.2501 33.0338 15.8667 32.9505 16.5501C32.8671 17.2334 32.2505 17.7334 31.5671 17.6501C28.8671 17.3334 25.9171 17.5834 23.6838 18.3001C23.5505 18.3167 23.4171 18.3501 23.3005 18.3501Z" fill="current"/>
<path d="M23.3005 22.7833C22.7671 22.7833 22.2838 22.45 22.1171 21.9167C21.9005 21.2667 22.2671 20.55 22.9171 20.35C25.4671 19.5167 28.8005 19.25 31.8505 19.6C32.5338 19.6833 33.0338 20.3 32.9505 20.9833C32.8671 21.6667 32.2505 22.1667 31.5671 22.0833C28.8671 21.7667 25.9171 22.0167 23.6838 22.7333C23.5505 22.7667 23.4171 22.7833 23.3005 22.7833Z" fill="current"/>
<path d="M23.3005 27.2166C22.7671 27.2166 22.2838 26.8833 22.1171 26.3499C21.9005 25.6999 22.2671 24.9833 22.9171 24.7833C25.4671 23.9499 28.8005 23.6833 31.8505 24.0333C32.5338 24.1166 33.0338 24.7333 32.9505 25.4166C32.8671 26.0999 32.2505 26.5833 31.5671 26.5166C28.8671 26.1999 25.9171 26.4499 23.6838 27.1666C23.5505 27.1999 23.4171 27.2166 23.3005 27.2166Z" fill="current"/>
</svg>
