<svg width="100%" height="100%" viewBox="0 0 24 24" fill="none" xmlns="http://www.w3.org/2000/svg">
<path d="M24 2.4C24 1.08 22.92 0 21.6 0H2.4C1.08 0 0 1.08 0 2.4V16.8C0 18.12 1.08 19.2 2.4 19.2H19.2L24 24V2.4ZM16.8 10.8H13.2V14.4C13.2 15.06 12.66 15.6 12 15.6C11.34 15.6 10.8 15.06 10.8 14.4V10.8H7.2C6.54 10.8 6 10.26 6 9.6C6 8.94 6.54 8.4 7.2 8.4H10.8V4.8C10.8 4.14 11.34 3.6 12 3.6C12.66 3.6 13.2 4.14 13.2 4.8V8.4H16.8C17.46 8.4 18 8.94 18 9.6C18 10.26 17.46 10.8 16.8 10.8Z" fill="#5F20AF"/>
</svg>
