<svg width="100%" height="100%" viewBox="0 0 32 32" fill="none" xmlns="http://www.w3.org/2000/svg">
<path d="M23.487 25.2197H16.7417C16.3537 25.2197 16.0391 25.5343 16.0391 25.9224C16.0391 26.3104 16.3537 26.625 16.7417 26.625H23.487C23.8751 26.625 24.1897 26.3104 24.1897 25.9224C24.1897 25.5343 23.8751 25.2197 23.487 25.2197Z" fill="#5F20AF"/>
<path d="M7.12402 22.5479L4.20985 25.4221C3.76391 25.862 4.07574 26.625 4.70324 26.625H9.24698C9.43332 26.625 9.61202 26.551 9.74379 26.4192L10.3696 25.7934L7.12402 22.5479Z" fill="#5F20AF"/>
<path d="M9.00246 16.9312C8.21808 17.7572 7.90297 18.9452 8.17999 20.0534C8.29977 20.5326 8.24262 21.0352 8.03516 21.4713L11.4499 24.8861C11.8861 24.6785 12.3887 24.6214 12.8677 24.7412C13.977 25.0186 15.1636 24.7024 15.9895 23.9182L9.00246 16.9312Z" fill="#5F20AF"/>
<path d="M27.3051 8.03661L25.2809 5.84372C24.3098 4.79173 22.6798 4.71453 21.6133 5.66253L10.0234 15.9646L16.963 22.9042L27.3136 11.5833C28.2318 10.579 28.2294 9.03801 27.3051 8.03661Z" fill="#5F20AF"/>
</svg>
