<svg width="40" height="40" viewBox="0 0 40 40" fill="current" xmlns="http://www.w3.org/2000/svg">
<path d="M32.3831 21.6334C32.4497 21.1 32.4997 20.5667 32.4997 20C32.4997 19.4334 32.4497 18.9 32.3831 18.3667L35.8997 15.6167C36.2164 15.3667 36.2997 14.9167 36.0997 14.55L32.7664 8.78337C32.5664 8.41671 32.1164 8.28337 31.7497 8.41671L27.5997 10.0834C26.7331 9.41671 25.7997 8.86671 24.7831 8.45004L24.1497 4.03337C24.0997 3.63337 23.7497 3.33337 23.3331 3.33337H16.6664C16.2497 3.33337 15.8997 3.63337 15.8497 4.03337L15.2164 8.45004C14.1997 8.86671 13.2664 9.43337 12.3997 10.0834L8.24973 8.41671C7.8664 8.26671 7.43307 8.41671 7.23307 8.78337L3.89973 14.55C3.68307 14.9167 3.78307 15.3667 4.09973 15.6167L7.6164 18.3667C7.54973 18.9 7.49973 19.45 7.49973 20C7.49973 20.55 7.54973 21.1 7.6164 21.6334L4.09973 24.3834C3.78307 24.6334 3.69973 25.0834 3.89973 25.45L7.23307 31.2167C7.43307 31.5834 7.88307 31.7167 8.24973 31.5834L12.3997 29.9167C13.2664 30.5834 14.1997 31.1334 15.2164 31.55L15.8497 35.9667C15.8997 36.3667 16.2497 36.6667 16.6664 36.6667H23.3331C23.7497 36.6667 24.0997 36.3667 24.1497 35.9667L24.7831 31.55C25.7997 31.1334 26.7331 30.5667 27.5997 29.9167L31.7497 31.5834C32.1331 31.7334 32.5664 31.5834 32.7664 31.2167L36.0997 25.45C36.2997 25.0834 36.2164 24.6334 35.8997 24.3834L32.3831 21.6334ZM19.9997 25.8334C16.7831 25.8334 14.1664 23.2167 14.1664 20C14.1664 16.7834 16.7831 14.1667 19.9997 14.1667C23.2164 14.1667 25.8331 16.7834 25.8331 20C25.8331 23.2167 23.2164 25.8334 19.9997 25.8334Z" fill="current" />
</svg>
